<?xml version="1.0" encoding="UTF-8" standalone="no"?>
<svg baseProfile="tiny" height="600px" version="1.2" width="800px" xmlns="http://www.w3.org/2000/svg">
  <rect fill="black" height="100%" width="100%" x="0" y="0" />
  
  <!-- Dotted paths -->
  <line x1="50" y1="300" x2="120" y2="320" stroke="white" stroke-dasharray="5,5" />
  <line x1="120" y1="320" x2="180" y2="340" stroke="white" stroke-dasharray="5,5" />
  <line x1="180" y1="340" x2="240" y2="380" stroke="white" stroke-dasharray="5,5" />
  <line x1="240" y1="380" x2="300" y2="420" stroke="white" stroke-dasharray="5,5" />
  <line x1="240" y1="380" x2="360" y2="380" stroke="white" stroke-dasharray="5,5" />
  <line x1="360" y1="380" x2="440" y2="320" stroke="white" stroke-dasharray="5,5" />
  <line x1="360" y1="380" x2="440" y2="400" stroke="white" stroke-dasharray="5,5" />
  <line x1="440" y1="400" x2="500" y2="360" stroke="white" stroke-dasharray="5,5" />
  <line x1="500" y1="360" x2="580" y2="320" stroke="white" stroke-dasharray="5,5" />
  <line x1="500" y1="360" x2="580" y2="420" stroke="white" stroke-dasharray="5,5" />

  <!-- Nodes -->
  <circle cx="50" cy="300" r="6" fill="white" />
  <text x="60" y="290" fill="white" font-size="10px">Chapel of Anticipation</text>

  <circle cx="120" cy="320" r="6" fill="gray" />
  <text x="130" y="310" fill="white" font-size="10px">Bridge Spawn</text>

  <circle cx="180" cy="340" r="6" fill="gray" />
  <text x="190" y="330" fill="white" font-size="10px">First Grace</text>

  <circle cx="240" cy="380" r="6" fill="gray" />
  <text x="250" y="370" fill="white" font-size="10px">Fractured Peninsula</text>

  <circle cx="300" cy="420" r="6" fill="purple" />
  <text x="310" y="410" fill="white" font-size="10px">Cave of Loot X</text>

  <circle cx="360" cy="380" r="6" fill="white" />
  <text x="370" y="370" fill="white" font-size="10px">West Limgrave</text>

  <circle cx="440" cy="320" r="6" fill="blue" />
  <text x="450" y="310" fill="white" font-size="10px">Ruined Fort</text>

  <circle cx="440" cy="400" r="6" fill="red" />
  <text x="450" y="390" fill="white" font-size="10px">Bandit Camp</text>

  <circle cx="500" cy="360" r="6" fill="red" />
  <text x="510" y="350" fill="white" font-size="10px">Knight Drop</text>

  <circle cx="580" cy="320" r="6" fill="gray" />
  <text x="590" y="310" fill="white" font-size="10px">Swamp Fringe</text>

  <circle cx="580" cy="420" r="6" fill="gray" />
  <text x="590" y="410" fill="white" font-size="10px">Caelid Edge</text>
</svg>
